{
	"asset":{
		"generator":"Khronos glTF Blender I/O v4.5.48",
		"version":"2.0"
	},
	"scene":0,
	"scenes":[
		{
			"name":"Scene",
			"nodes":[
				0
			]
		}
	],
	"nodes":[
		{
			"mesh":0,
			"name":"Cone",
			"scale":[
				0.46691274642944336,
				1,
				0.46691274642944336
			],
			"translation":[
				-0.0094071626663208,
				1.1460469961166382,
				0.0072373151779174805
			]
		}
	],
	"materials":[
		{
			"doubleSided":true,
			"name":"Material.002",
			"pbrMetallicRoughness":{
				"baseColorTexture":{
					"index":0
				},
				"metallicFactor":0,
				"roughnessFactor":0.5
			}
		},
		{
			"doubleSided":true,
			"name":"Material.001",
			"pbrMetallicRoughness":{
				"baseColorTexture":{
					"index":1
				},
				"metallicFactor":0,
				"roughnessFactor":0.5
			}
		},
		{
			"doubleSided":true,
			"name":"Material.003",
			"pbrMetallicRoughness":{
				"baseColorTexture":{
					"index":2
				},
				"metallicFactor":0,
				"roughnessFactor":0.5
			}
		},
		{
			"doubleSided":true,
			"name":"Material.004",
			"pbrMetallicRoughness":{
				"baseColorTexture":{
					"index":3
				},
				"metallicFactor":0,
				"roughnessFactor":0.5
			}
		},
		{
			"doubleSided":true,
			"name":"Material.005",
			"pbrMetallicRoughness":{
				"baseColorTexture":{
					"index":4
				},
				"metallicFactor":0,
				"roughnessFactor":0.5
			}
		},
		{
			"doubleSided":true,
			"name":"Material.006",
			"pbrMetallicRoughness":{
				"baseColorTexture":{
					"index":5
				},
				"metallicFactor":0,
				"roughnessFactor":0.5
			}
		},
		{
			"doubleSided":true,
			"name":"Material.007",
			"pbrMetallicRoughness":{
				"baseColorTexture":{
					"index":6
				},
				"metallicFactor":0,
				"roughnessFactor":0.5
			}
		},
		{
			"doubleSided":true,
			"name":"Material.008",
			"pbrMetallicRoughness":{
				"baseColorTexture":{
					"index":7
				},
				"metallicFactor":0,
				"roughnessFactor":0.5
			}
		},
		{
			"doubleSided":true,
			"name":"Material.009",
			"pbrMetallicRoughness":{
				"baseColorTexture":{
					"index":8
				},
				"metallicFactor":0,
				"roughnessFactor":0.5
			}
		}
	],
	"meshes":[
		{
			"name":"Cone",
			"primitives":[
				{
					"attributes":{
						"POSITION":0,
						"NORMAL":1,
						"TEXCOORD_0":2
					},
					"indices":3,
					"material":0
				},
				{
					"attributes":{
						"POSITION":4,
						"NORMAL":5,
						"TEXCOORD_0":6
					},
					"indices":7,
					"material":1
				},
				{
					"attributes":{
						"POSITION":8,
						"NORMAL":9,
						"TEXCOORD_0":10
					},
					"indices":11,
					"material":2
				},
				{
					"attributes":{
						"POSITION":12,
						"NORMAL":13,
						"TEXCOORD_0":14
					},
					"indices":15,
					"material":3
				},
				{
					"attributes":{
						"POSITION":16,
						"NORMAL":17,
						"TEXCOORD_0":18
					},
					"indices":19,
					"material":4
				},
				{
					"attributes":{
						"POSITION":20,
						"NORMAL":21,
						"TEXCOORD_0":22
					},
					"indices":19,
					"material":5
				},
				{
					"attributes":{
						"POSITION":23,
						"NORMAL":24,
						"TEXCOORD_0":25
					},
					"indices":19,
					"material":6
				},
				{
					"attributes":{
						"POSITION":26,
						"NORMAL":27,
						"TEXCOORD_0":28
					},
					"indices":19,
					"material":7
				},
				{
					"attributes":{
						"POSITION":29,
						"NORMAL":30,
						"TEXCOORD_0":31
					},
					"indices":19,
					"material":8
				}
			]
		}
	],
	"textures":[
		{
			"sampler":0,
			"source":0
		},
		{
			"sampler":0,
			"source":1
		},
		{
			"sampler":0,
			"source":2
		},
		{
			"sampler":0,
			"source":3
		},
		{
			"sampler":0,
			"source":3
		},
		{
			"sampler":0,
			"source":3
		},
		{
			"sampler":0,
			"source":3
		},
		{
			"sampler":0,
			"source":3
		},
		{
			"sampler":0,
			"source":3
		}
	],
	"images":[
		{
			"mimeType":"image/png",
			"name":"Cone Base Color",
			"uri":"Cone%20Base%20Color.png"
		},
		{
			"mimeType":"image/png",
			"name":"Sphere Base Color",
			"uri":"Sphere%20Base%20Color.png"
		},
		{
			"mimeType":"image/png",
			"name":"Sphere",
			"uri":"Sphere.png"
		},
		{
			"mimeType":"image/png",
			"name":"Sphere.009 Base Color",
			"uri":"Sphere.009%20Base%20Color.png"
		}
	],
	"accessors":[
		{
			"bufferView":0,
			"componentType":5126,
			"count":128,
			"max":[
				1,
				1,
				1
			],
			"min":[
				-1,
				-1,
				-1
			],
			"type":"VEC3"
		},
		{
			"bufferView":1,
			"componentType":5126,
			"count":128,
			"type":"VEC3"
		},
		{
			"bufferView":2,
			"componentType":5126,
			"count":128,
			"type":"VEC2"
		},
		{
			"bufferView":3,
			"componentType":5123,
			"count":186,
			"type":"SCALAR"
		},
		{
			"bufferView":4,
			"componentType":5126,
			"count":1984,
			"max":[
				2.731902837753296,
				1.3680384159088135,
				2.838134527206421
			],
			"min":[
				-2.477313280105591,
				-0.8049372434616089,
				-2.606570243835449
			],
			"type":"VEC3"
		},
		{
			"bufferView":5,
			"componentType":5126,
			"count":1984,
			"type":"VEC3"
		},
		{
			"bufferView":6,
			"componentType":5126,
			"count":1984,
			"type":"VEC2"
		},
		{
			"bufferView":7,
			"componentType":5123,
			"count":2880,
			"type":"SCALAR"
		},
		{
			"bufferView":8,
			"componentType":5126,
			"count":17856,
			"max":[
				2.620905876159668,
				0.7661159038543701,
				2.6672677993774414
			],
			"min":[
				-2.5591659545898438,
				-0.1623656153678894,
				-0.9036253094673157
			],
			"type":"VEC3"
		},
		{
			"bufferView":9,
			"componentType":5126,
			"count":17856,
			"type":"VEC3"
		},
		{
			"bufferView":10,
			"componentType":5126,
			"count":17856,
			"type":"VEC2"
		},
		{
			"bufferView":11,
			"componentType":5123,
			"count":25920,
			"type":"SCALAR"
		},
		{
			"bufferView":12,
			"componentType":5126,
			"count":1984,
			"max":[
				-1.478223443031311,
				0.68662428855896,
				-1.3446370363235474
			],
			"min":[
				-2.120741367340088,
				0.3866243064403534,
				-1.9871550798416138
			],
			"type":"VEC3"
		},
		{
			"bufferView":13,
			"componentType":5126,
			"count":1984,
			"type":"VEC3"
		},
		{
			"bufferView":14,
			"componentType":5126,
			"count":1984,
			"type":"VEC2"
		},
		{
			"bufferView":15,
			"componentType":5123,
			"count":2880,
			"type":"SCALAR"
		},
		{
			"bufferView":16,
			"componentType":5126,
			"count":1984,
			"max":[
				-0.6831433773040771,
				-0.056399762630462646,
				-1.2488030195236206
			],
			"min":[
				-1.3256611824035645,
				-0.3563997149467468,
				-1.8913211822509766
			],
			"type":"VEC3"
		},
		{
			"bufferView":17,
			"componentType":5126,
			"count":1984,
			"type":"VEC3"
		},
		{
			"bufferView":18,
			"componentType":5126,
			"count":1984,
			"type":"VEC2"
		},
		{
			"bufferView":19,
			"componentType":5123,
			"count":2880,
			"type":"SCALAR"
		},
		{
			"bufferView":20,
			"componentType":5126,
			"count":1984,
			"max":[
				0.3538460433483124,
				0.3432139456272125,
				-2.2039794921875
			],
			"min":[
				-0.2886718511581421,
				0.04321396350860596,
				-2.8464975357055664
			],
			"type":"VEC3"
		},
		{
			"bufferView":21,
			"componentType":5126,
			"count":1984,
			"type":"VEC3"
		},
		{
			"bufferView":22,
			"componentType":5126,
			"count":1984,
			"type":"VEC2"
		},
		{
			"bufferView":23,
			"componentType":5126,
			"count":1984,
			"max":[
				1.568122148513794,
				0.6139054298400879,
				-1.7801858186721802
			],
			"min":[
				0.9256041646003723,
				0.3139054477214813,
				-2.422703981399536
			],
			"type":"VEC3"
		},
		{
			"bufferView":24,
			"componentType":5126,
			"count":1984,
			"type":"VEC3"
		},
		{
			"bufferView":25,
			"componentType":5126,
			"count":1984,
			"type":"VEC2"
		},
		{
			"bufferView":26,
			"componentType":5126,
			"count":1984,
			"max":[
				2.8416671752929688,
				0.23110274970531464,
				0.07662132382392883
			],
			"min":[
				2.1991493701934814,
				-0.06889724731445312,
				-0.5658968091011047
			],
			"type":"VEC3"
		},
		{
			"bufferView":27,
			"componentType":5126,
			"count":1984,
			"type":"VEC3"
		},
		{
			"bufferView":28,
			"componentType":5126,
			"count":1984,
			"type":"VEC2"
		},
		{
			"bufferView":29,
			"componentType":5126,
			"count":1984,
			"max":[
				2.316791296005249,
				0.1718330830335617,
				-1.0073983669281006
			],
			"min":[
				1.6742733716964722,
				-0.12816691398620605,
				-1.649916410446167
			],
			"type":"VEC3"
		},
		{
			"bufferView":30,
			"componentType":5126,
			"count":1984,
			"type":"VEC3"
		},
		{
			"bufferView":31,
			"componentType":5126,
			"count":1984,
			"type":"VEC2"
		}
	],
	"bufferViews":[
		{
			"buffer":0,
			"byteLength":1536,
			"byteOffset":0,
			"target":34962
		},
		{
			"buffer":0,
			"byteLength":1536,
			"byteOffset":1536,
			"target":34962
		},
		{
			"buffer":0,
			"byteLength":1024,
			"byteOffset":3072,
			"target":34962
		},
		{
			"buffer":0,
			"byteLength":372,
			"byteOffset":4096,
			"target":34963
		},
		{
			"buffer":0,
			"byteLength":23808,
			"byteOffset":4468,
			"target":34962
		},
		{
			"buffer":0,
			"byteLength":23808,
			"byteOffset":28276,
			"target":34962
		},
		{
			"buffer":0,
			"byteLength":15872,
			"byteOffset":52084,
			"target":34962
		},
		{
			"buffer":0,
			"byteLength":5760,
			"byteOffset":67956,
			"target":34963
		},
		{
			"buffer":0,
			"byteLength":214272,
			"byteOffset":73716,
			"target":34962
		},
		{
			"buffer":0,
			"byteLength":214272,
			"byteOffset":287988,
			"target":34962
		},
		{
			"buffer":0,
			"byteLength":142848,
			"byteOffset":502260,
			"target":34962
		},
		{
			"buffer":0,
			"byteLength":51840,
			"byteOffset":645108,
			"target":34963
		},
		{
			"buffer":0,
			"byteLength":23808,
			"byteOffset":696948,
			"target":34962
		},
		{
			"buffer":0,
			"byteLength":23808,
			"byteOffset":720756,
			"target":34962
		},
		{
			"buffer":0,
			"byteLength":15872,
			"byteOffset":744564,
			"target":34962
		},
		{
			"buffer":0,
			"byteLength":5760,
			"byteOffset":760436,
			"target":34963
		},
		{
			"buffer":0,
			"byteLength":23808,
			"byteOffset":766196,
			"target":34962
		},
		{
			"buffer":0,
			"byteLength":23808,
			"byteOffset":790004,
			"target":34962
		},
		{
			"buffer":0,
			"byteLength":15872,
			"byteOffset":813812,
			"target":34962
		},
		{
			"buffer":0,
			"byteLength":5760,
			"byteOffset":829684,
			"target":34963
		},
		{
			"buffer":0,
			"byteLength":23808,
			"byteOffset":835444,
			"target":34962
		},
		{
			"buffer":0,
			"byteLength":23808,
			"byteOffset":859252,
			"target":34962
		},
		{
			"buffer":0,
			"byteLength":15872,
			"byteOffset":883060,
			"target":34962
		},
		{
			"buffer":0,
			"byteLength":23808,
			"byteOffset":898932,
			"target":34962
		},
		{
			"buffer":0,
			"byteLength":23808,
			"byteOffset":922740,
			"target":34962
		},
		{
			"buffer":0,
			"byteLength":15872,
			"byteOffset":946548,
			"target":34962
		},
		{
			"buffer":0,
			"byteLength":23808,
			"byteOffset":962420,
			"target":34962
		},
		{
			"buffer":0,
			"byteLength":23808,
			"byteOffset":986228,
			"target":34962
		},
		{
			"buffer":0,
			"byteLength":15872,
			"byteOffset":1010036,
			"target":34962
		},
		{
			"buffer":0,
			"byteLength":23808,
			"byteOffset":1025908,
			"target":34962
		},
		{
			"buffer":0,
			"byteLength":23808,
			"byteOffset":1049716,
			"target":34962
		},
		{
			"buffer":0,
			"byteLength":15872,
			"byteOffset":1073524,
			"target":34962
		}
	],
	"samplers":[
		{
			"magFilter":9729,
			"minFilter":9987
		}
	],
	"buffers":[
		{
			"byteLength":1089396,
			"uri":"bush.bin"
		}
	]
}
